<svg id="Layer_1" data-name="Layer 1" xmlns="http://www.w3.org/2000/svg" viewBox="0 0 512 512"><defs><style>.cls-1{fill:none;}.cls-2{fill:#0054a6;}</style></defs><rect class="cls-1" width="512" height="512"/><path class="cls-1" d="M256,74.71C356,74.71,437.29,156,437.29,256S356,437.29,256,437.29,74.71,356,74.71,256,156,74.71,256,74.71Z"/><path class="cls-2" d="M239.89,318.07l1.82-9.11h8v21.76H196.56V321c12.75-9.42,15.59-11.75,20.55-16.6,8.4-8.31,11.84-14.89,11.84-22.59s-4.85-12.55-12.65-12.55a24.08,24.08,0,0,0-2.53.1v15.29c-3.75,1.62-6,2.13-8.51,2.13-5.56,0-9.11-3.35-9.11-8.51,0-9.82,10.53-16.7,25.62-16.7,15.79,0,25.81,7.69,25.81,19.94,0,12.66-11.44,24.4-35.53,36.55Z"/><path class="cls-2" d="M306.23,267.45l-6.07-.81a1.85,1.85,0,0,0-.62-.1c-2,0-7.28,1.72-10.53,3.44-5.77,3.14-9.81,9.82-11.23,18.53,5.87-3.14,10.33-4.46,15.59-4.46,13,0,22.48,9.93,22.48,23.39,0,14.78-11.34,24.7-28.15,24.7-18.22,0-28.74-11.54-28.74-31.48,0-18.23,9.51-33.11,25.09-39.08,6.38-2.43,11.14-3.14,22.18-3.14Zm-29.66,33.92c0,15.28,3.95,23.68,11.23,23.68,6.18,0,9.92-5.87,9.92-15.48,0-10.84-4.15-15.49-13.87-15.49a24.15,24.15,0,0,0-7.08.9C276.57,298.54,276.57,299.85,276.57,301.37Z"/><path class="cls-2" d="M255.09,108.23c81.65,0,148.08,66.42,148.08,148.07S336.74,404.38,255.09,404.38,107,338,107,256.3,173.44,108.23,255.09,108.23Zm0,293.27c80.07,0,145.2-65.13,145.2-145.2s-65.13-145.21-145.2-145.21-145.2,65.15-145.2,145.21S175,401.5,255.09,401.5Z"/><path class="cls-2" d="M149.89,209.7v2.43l-2.52.17-.67.63v8.59h10.48v-8.59l-.67-.63-2.51-.17V209.7h13.91v2.43l-2.6.17-.66.63v21.51l.66.79,2.6.17v2.43H154V235.4l2.51-.17.67-.79v-9.81H146.7v9.81l.67.79,2.52.17v2.43H136V235.4l2.56-.17.71-.79V212.93l-.71-.63-2.56-.17V209.7Z"/><path class="cls-2" d="M174.45,235.4l2.81-.17.67-.79V212.93l-.67-.63-2.81-.17V209.7h23.06v7H193.9l-.67-3.68-.59-.47h-7.42v9.27h4.4l.63-.59.42-3h3v10.32h-3l-.42-3-.63-.59h-4.4V235h8.72l.59-.67.67-4.61h3.61v8.13H174.45Z"/><path class="cls-2" d="M220.65,209.7c2.47,0,5.11.38,6.83,1.51a5.58,5.58,0,0,1,2.6,5,5.39,5.39,0,0,1-1.51,3.94,7.62,7.62,0,0,1-4.78,2.56v.08a10.6,10.6,0,0,1,5.49,1.68c1.13.84,2.35,2.22,2.35,5.24a7,7,0,0,1-2.89,6c-2.64,2-6.42,2.06-7.76,2.06H205.6V235.4l2.64-.17.67-.79V212.93l-.67-.63-2.64-.17V209.7Zm-4.45,12.2c2.77.25,4.4-.5,5.2-1.42a5.61,5.61,0,0,0,1-3.53,4.43,4.43,0,0,0-1.38-3.56,6.08,6.08,0,0,0-3.78-1H216.2Zm0,13.21c2.22.17,5,.17,6.5-1.56a5.41,5.41,0,0,0,1.17-3.64,4.56,4.56,0,0,0-2-4.19,8.94,8.94,0,0,0-4.36-1H216.2Z"/><path class="cls-2" d="M261.43,236.83a27.5,27.5,0,0,1-9,1.59c-3.78,0-7.93-.55-11.57-4a14.57,14.57,0,0,1,2.43-23c2-1.26,4.86-2.31,9.35-2.31a24.47,24.47,0,0,1,8.8,1.68v7.59h-3.86l-1-5.16-.72-.67a9.38,9.38,0,0,0-2.18-.25,8.4,8.4,0,0,0-6,2.35c-2,1.93-3.15,5.11-3.15,9a13.68,13.68,0,0,0,2.39,8.31,8.54,8.54,0,0,0,6.79,3.22,21.57,21.57,0,0,0,2.18-.17l.68-.62,1-5.45h3.86Z"/><path class="cls-2" d="M268.51,235.4l2.77-.17.67-.79V212.93l-.67-.63-2.77-.17V209.7h14v2.43l-2.43.17-.67.63v9h1.89a3.78,3.78,0,0,0,2.43-.71,6.31,6.31,0,0,0,1.64-2.52l1.67-4a10,10,0,0,1,2.77-4.32,5.19,5.19,0,0,1,3.48-1.22,4.42,4.42,0,0,1,3.44,1.31,3.55,3.55,0,0,1,1,2.51,3.81,3.81,0,0,1-3.35,3.94l-3.44-2.94a7.51,7.51,0,0,0-.88,1.81l-1.34,3.39c-.93,2.31-1.85,3.31-3.11,3.86v.09a7.18,7.18,0,0,1,3.65,1.8,11.49,11.49,0,0,1,2.81,3.94l2.6,5.66.8.67,2.93.25v2.43h-11V236.2l-3.27-7.93a7.21,7.21,0,0,0-1.47-2.47,3,3,0,0,0-2.09-.8h-1.14v9.44l.67.79,2.43.17v2.43h-14Z"/><path class="cls-2" d="M318.72,209.7v2.43l-2.52.17-.67.63V228.4l11.15-14.29v-1.18l-.67-.63-2.51-.17V209.7h13.91v2.43l-2.59.17-.68.63v21.51l.68.79,2.59.17v2.43H323.5V235.4l2.51-.17.67-.79V218.63l-11.15,14.3v1.51l.67.79,2.52.17v2.43H304.8V235.4l2.56-.17.71-.79V212.93l-.71-.63-2.56-.17V209.7Z"/><path class="cls-2" d="M357.33,209.7v2.43l-2.51.17-.67.63V228.4l11.15-14.29v-1.18l-.67-.63-2.52-.17V209.7H376v2.43l-2.6.17-.67.63v21.51l.67.79,2.6.17v2.43H362.11V235.4l2.52-.17.67-.79V218.63l-11.15,14.3v1.51l.67.79,2.51.17v2.43H343.41V235.4l2.56-.17.72-.79V212.93l-.72-.63-2.56-.17V209.7Zm-1.05-4.82a17.57,17.57,0,0,0,6.88,0v-3.61a4.22,4.22,0,0,1,2.93-1c2.52,0,3.52,1.47,3.52,2.85a3.77,3.77,0,0,1-2.34,3.4c-1,.5-2.94,1.21-7.55,1.21s-6.58-.71-7.54-1.21a3.78,3.78,0,0,1-2.35-3.4c0-1.38,1-2.85,3.52-2.85a4.2,4.2,0,0,1,2.93,1Z"/><path class="cls-2" d="M122.52,389.57l6.23,6.1,10.8-11-2.31-2.26a40.06,40.06,0,0,1-7.84,5A32.07,32.07,0,0,1,122.52,389.57Z"/><path class="cls-2" d="M218.91,426.11l-1.16-.26-1.81,8.23.23.05a4.62,4.62,0,0,0,3.1-.14,4.45,4.45,0,0,0,1.95-3.09,5.58,5.58,0,0,0-.06-2.94A2.9,2.9,0,0,0,218.91,426.11Z"/><path class="cls-2" d="M241.7,429.31a3.9,3.9,0,0,0-3.29,1.42,10.92,10.92,0,0,0-2.15,6.16,10.1,10.1,0,0,0,1.21,6.33,4,4,0,0,0,3.06,1.92,3.86,3.86,0,0,0,3.2-1.32c1.33-1.45,2.05-3.91,2.24-6.39a10,10,0,0,0-1.05-6.07A4,4,0,0,0,241.7,429.31Z"/><path class="cls-2" d="M99.3,330a4,4,0,0,0,.36-3.81,3.88,3.88,0,0,0-2.76-2.3,10.86,10.86,0,0,0-6.47.89,10.11,10.11,0,0,0-5.09,3.95,3.94,3.94,0,0,0-.32,3.6,3.86,3.86,0,0,0,2.62,2.26c1.91.53,4.43.05,6.72-.9A10.1,10.1,0,0,0,99.3,330Z"/><path class="cls-2" d="M76.84,225.54a2.28,2.28,0,0,0-4.56,0,2.28,2.28,0,1,0,4.56,0Z"/><path class="cls-2" d="M109.82,349.73a2.89,2.89,0,0,0-.16-2.91l-.6-1L101.77,350l.12.2a4.65,4.65,0,0,0,2.21,2.19,4.5,4.5,0,0,0,3.59-.65A5.75,5.75,0,0,0,109.82,349.73Z"/><path class="cls-2" d="M256,46.73C140.43,46.73,46.73,140.43,46.73,256S140.43,465.27,256,465.27,465.27,371.58,465.27,256,371.57,46.73,256,46.73ZM430.16,169.09l-5.73,3.23-1.35-2.39,3.11-2.54.05-.71L424.72,164l-14.88,8.39-.23.85,1,2-1.65.93-5.63-10,1.66-.93,1.19,1.85.84.23,14.87-8.39-1.55-2.76-.62-.29-3.77,1.37-1.35-2.39,5.73-3.23Zm-29.5-43.58,6.73,8.52-1.49,1.18-1.32-1.46-.7-.11-9.48,7.48,14.15-.08.72-.57.06-.71-1.11-1.62L409.7,137l6.73,8.52L415,146.66l-1.36-1.51-.71-.11-13.17,10.4-.17.8,1.16,1.67-1.49,1.18-6.73-8.53,1.49-1.17,1.32,1.46.81,0,9.68-7.64-14.15.08-.92.73-.17.8,1.12,1.62-1.49,1.18-6.73-8.53,1.49-1.17,1.33,1.48.84.05,13.17-10.4,0-.74-1.13-1.64Zm-24.05-22.46,8.08,7.25-1.27,1.41-1.55-1.21h-.71l-4.48,5,6.09,5.45,4.48-5-.06-.71-1.38-1.41,1.27-1.41,8.08,7.25-1.26,1.41-1.6-1.25h-.72l-11.2,12.5,0,.81,1.42,1.45L380.51,136l-8.08-7.25,1.26-1.41,1.55,1.21.8-.11,5.12-5.7-6.09-5.46L370,123l0,.81,1.37,1.41L370,126.64,362,119.39l1.27-1.41,1.57,1.23.83-.08,11.2-12.5-.08-.74-1.4-1.43ZM346,105.7l9.17-14.06L355,91l-1.76-1.31,1-1.59,15.07,9.84-3,4.57L364,100.92l1.14-2.7-.19-.55-4.85-3.16-3.95,6,2.88,1.88.66-.11,1.56-1.8,1.94,1.27-4.39,6.74-1.95-1.27,1-2.15-.16-.65-2.87-1.88-4.29,6.58,5.69,3.72.67-.19,2.41-2.73,2.35,1.54-3.46,5.31L342.3,106.43l1-1.58,1.9,1.08ZM325.28,90.38l2.72,1.3-1.09,4.18.25.67a12.21,12.21,0,0,0,1.75,1,5.93,5.93,0,0,0,3.92.75,4,4,0,0,0,2.6-2.34,3.7,3.7,0,0,0,.38-2.61,4,4,0,0,0-2.34-2.46,17.14,17.14,0,0,0-2.35-.91l1.18-2.48c.31.18.91.51,1.44.77a4.37,4.37,0,0,0,3.17.42,4,4,0,0,0,2-2.11,3.72,3.72,0,0,0,.3-2.91,3.83,3.83,0,0,0-2.12-2,7.73,7.73,0,0,0-1.8-.64l-.72.23-2.45,3.3-2.71-1.3L332,77.89a21.25,21.25,0,0,1,7.29,2c3.07,1.47,4.23,2.75,4.71,3.41a4.91,4.91,0,0,1,.58,5.24,4.28,4.28,0,0,1-2.8,2.36,8.28,8.28,0,0,1-4,0l0,.06a7.43,7.43,0,0,1,3.29,3.27,4.91,4.91,0,0,1-.14,4.18,5.79,5.79,0,0,1-4.77,3.37c-2.38.28-5.42-.7-7.49-1.69a23.11,23.11,0,0,1-6-4.25ZM295.71,77.91l15.8,4.29-1,3.79L294.69,81.7Zm-39.25,3.32,2.16,0,.64-.58,2-3.47a12,12,0,0,1,1.94-2.71,5.38,5.38,0,0,1,2.75-1.38v-.06a6.83,6.83,0,0,1-4.08-1.67,4.84,4.84,0,0,1-1.42-4,5.68,5.68,0,0,1,2.41-4.32c1.86-1.24,4.15-1.18,6.18-1l11.84.85-.14,1.89h-2l-.56.45L276.94,82l.48.66,2,.27-.14,1.89-11-.79.13-1.89,2.17,0,.56-.58.49-6.85-.71-.05a3,3,0,0,0-2.21.53A6.64,6.64,0,0,0,267.32,77l-2.74,5.41-.1,1.28-8.15-.59ZM231.39,63.12l.1.94,5.91,13.16,3-14.13-.09-.91,10.54-1.1.2,1.89-2.43.38-.34.53,1.74,16.69.45.58L253,81l.2,1.88L242.62,84l-.2-1.88,2-.35.23-.65L242.9,64.35h-.06l-4.36,20.08-3.28.34L226.8,66h-.07l1.75,16.79.46.58,2.16-.09.19,1.88-8.13.85-.2-1.88,2.27-.37.32-.66-1.74-16.69-.44-.45-2.29.11-.2-1.89ZM199,70.17l.54,1.82-1.84.69-.37.62,3.43,11.57L206,71.7l-.26-.88-.64-.32-1.92.43-.53-1.81L213,66l.54,1.82-1.91.7-.36.62,4.78,16.08.67.45,2-.45.54,1.82-10.4,3.08-.54-1.82,1.84-.68.32-.74L207,75.09,201.8,88.25l.34,1.13.67.45,1.92-.44.54,1.82-10.4,3.09-.55-1.82,1.88-.69.35-.76L191.78,75l-.67-.31-2,.44-.54-1.81Zm-29.39,11.5,2.63,4.79-2.47,1.35L168,85.54l-.57-.09-5.08,2.78,3.48,6.34,3-1.65.21-.64-.85-2.23,2-1.11,3.87,7-2,1.12-1.42-1.91L170,95l-3,1.65,3.78,6.88,6-3.27.15-.68-1.27-3.41L178,94.86l3.06,5.56-16.66,9.14-.91-1.66,1.86-1.17.15-.8-8.07-14.7-.69-.18-2,.94-.91-1.67Zm-41.48,27.72,1.19,1.47L128.22,112l-.1.72L139,126l4.78-3.87L132.9,108.79l-.75,0-1.27.87-1.2-1.47,7.57-6.15,1.2,1.48-1.14,1.09-.1.71,10.84,13.36,4.78-3.88L142,101.41l-.72,0-1.3.89-1.2-1.47,7.93-6.43,1.19,1.47L146.4,97.2l-.1.71,10.58,13,.8.15,1.65-1.18,1.2,1.48-26.46,21.47-1.2-1.47,1.47-1.36,0-.83-10.58-13-.74,0-1.63,1.16-1.2-1.48Zm-18.83,18.77,20.12,7.13,1.49-1.35,1.44,1.23-6.85,8.07L124.08,142l1.32-1.8-.16-.48-4.83-1.83-4.51,5.31,2.63,4.38H119l1.53-1.44,1.44,1.22-5.1,6-1.44-1.23,1.27-1.7-10.46-18.71ZM89.16,156.28l1.62,1L89.87,159l.15.71,5.73,3.48,4.24-7-5.72-3.49-.7.2-1.13,1.61-1.62-1,5.64-9.28,1.62,1-.94,1.81.15.7,14.34,8.72.8-.13,1.17-1.66,1.62,1-5.64,9.28L108,164l.9-1.75-.26-.77-6.54-4-4.25,7,6.55,4,.8-.12,1.13-1.61,1.62,1L102.27,177l-1.62-1,.92-1.78-.24-.79L87,164.69l-.71.22-1.14,1.64-1.63-1ZM64.4,250.46l-2.2,1.93L62,245l7.06,1.4-2.18,1.9a10.5,10.5,0,0,0,6.25,4.33V236.2H67.67V233h5.42v-2.11a5.53,5.53,0,1,1,3.22-.09V233H81.5v3.23H76.31v16.52a12,12,0,0,0,7-4.13l-2.24-2.05,7.07-1.29-.37,7.43-2.08-1.9c-1.61,1.84-5.35,5.28-10.78,5.28A13.21,13.21,0,0,1,64.4,250.46Zm11.93,62.08-2.61-9.73,1.62-.43.59,1.75.65.31,14.3-3.83.3-.57-.36-1.81,1.61-.43L96.51,313l-5.85,1.56-.74-2.73,3.4-1.39.36-.45-1.21-4.52-14.56,3.9-.39.67.43,2ZM82.91,333a10.91,10.91,0,0,1-.58-7.2,10,10,0,0,1,6-6.38,9.64,9.64,0,0,1,8.63.31,11.73,11.73,0,0,1,4.73,5.79,10.91,10.91,0,0,1,.65,6.92A10.26,10.26,0,0,1,88,338.83,11.34,11.34,0,0,1,82.91,333Zm18,19.53a16.8,16.8,0,0,1-.78-1.51l-4,2.35-.25.65,1,1.9-1.45.85L90.22,348l1.45-.84,1,1.54.75.2,12.8-7.45.19-.55-.92-1.8,1.45-.84,4.7,8.09c1.64,2.81,1.84,4.47,1.85,5.23a5,5,0,0,1-2.85,4.7,6,6,0,0,1-5.18.68C103.65,356.35,102.05,354.58,100.86,352.53Zm7.48,24.2a10.89,10.89,0,0,1-2.48-6.78,10,10,0,0,1,4.12-7.76,9.66,9.66,0,0,1,8.4-2,11.58,11.58,0,0,1,6.11,4.31A10.93,10.93,0,0,1,127,371a10.25,10.25,0,0,1-12.18,10A11.4,11.4,0,0,1,108.34,376.73ZM145,389.6l-1.36-1.18H143L132.67,399v.5L134.2,401l-5,5.11-2.06-2,2.77-3.91,0-.61-9.12-8.92-.61,0-3.85,2.86-2.06-2,5-5.11,1,1a29.72,29.72,0,0,0,8.13-2.63A35.53,35.53,0,0,0,135,380.7l0-.63-1.57-1.86,1.17-1.2,11.63,11.38Zm-43-133.6A153.94,153.94,0,1,1,256,409.94,153.94,153.94,0,0,1,102.06,256ZM268.8,421.68a2.94,2.94,0,0,1,2-.84c1.73-.11,2.49.85,2.56,1.8a2.6,2.6,0,0,1-1.45,2.44c-.64.39-2,1-5.13,1.2s-4.55-.18-5.24-.48a2.58,2.58,0,0,1-1.77-2.21c-.07-1,.55-2,2.28-2.13a2.87,2.87,0,0,1,2.06.55l.18,2.47a8,8,0,0,0,2.37.07,8.11,8.11,0,0,0,2.35-.4Zm-109-8.59-12.15-7.8,1.88-2.91,12.14,7.79Zm25.64,2-4.22-2-6.58,13.56.26.73,1.82,1-.73,1.51-9.07-4.41.73-1.5,1.72.7.65-.29L176.47,411l-.23-.59-1.62-.9.74-1.52,14.19,6.89-2.65,5.45-2.55-1.23,1.17-3.47Zm17.73,6.85-4.81-1.68-2.11,6,2.86,1,.55-.23,1-1.87,1.94.67-2.34,6.7-1.94-.67.42-2.06-.28-.53-2.86-1-2.28,6.54,5.67,2,.53-.31,1.48-2.84,2.34.82-1.84,5.28-15.83-5.52.55-1.58,1.86.52.62-.35,4.88-14-.3-.55-1.78-.75.55-1.58,15,5.23-1.58,4.54-2.35-.81.4-2.55Zm23.43,9.89a6,6,0,0,1-3,4.27c-1.71.92-4.1.9-6.41.39-.57-.13-1.15-.28-1.65-.45l-1,4.56.3.64,2.07.57-.36,1.63-9.87-2.17.36-1.63,1.83.28.65-.42L212.68,425l-.27-.5-1.95-.55.36-1.64,9.13,2c3.18.71,4.53,1.68,5.1,2.19A5,5,0,0,1,226.58,431.79ZM251.72,438a9.86,9.86,0,0,1-4.09,7.43,11.48,11.48,0,0,1-7.5,1.86,10.9,10.9,0,0,1-6.67-2.75,10,10,0,0,1-2.93-8.28,9.62,9.62,0,0,1,4.18-7.54,11.76,11.76,0,0,1,7.31-1.6,11,11,0,0,1,6.45,2.58A9.74,9.74,0,0,1,251.72,438Zm18.12,8.83-.12-1.67,1.72-.24.42-.58-.76-10.86-7,10.36.07,1,.5.51h1.74l.12,1.68-9.57.67-.11-1.68,1.75-.24.45-.57-1-14.78-.52-.4h-1.77l-.11-1.67,9.56-.66.11,1.66-1.71.24-.44.46.74,10.63,7-10.35-.05-.81-.49-.4h-1.74l-.12-1.67,9.56-.67.11,1.67-1.77.24-.43.46L277,444l.5.51h1.79l.12,1.67Zm34.7-4.79-.44-1.62,1.93-.64.3-.65-3.9-14.56-3.4.92a64.64,64.64,0,0,1,1.32,8.61c.26,4.45-.59,7.27-1.73,8.83a4.12,4.12,0,0,1-2.39,1.69,3.07,3.07,0,0,1-1.85,0,2.36,2.36,0,0,1-1.46-1.73,2.71,2.71,0,0,1,.22-2.1,2.67,2.67,0,0,1,1.42-1.16l2.38,1.17a14.58,14.58,0,0,0,.8-6.95,54.14,54.14,0,0,0-1.13-7.32l-.56-.3-2.39.41-.44-1.62,15.84-4.25.44,1.62-1.7.58-.34.54,3.83,14.3.59.41,1.76-.35.44,1.62Zm14.7-4.41-.64-1.55,1.75-.84.21-.69-5.63-13.68-.6-.22-1.83.63-.64-1.55,14.68-6,1.83,4.45-2.29.94-1.4-2.17-.49-.14-4.73,2,2.44,5.89,2.8-1.15.24-.54-.52-2,1.89-.78,2.71,6.56-1.9.78-1.05-1.81-.56-.2-2.8,1.15,2.64,6.4,5.55-2.29.2-.58-.79-3.1,2.3-.95,2.13,5.17Zm31.38-14.94-.84-1.45,1.44-1,.13-.71L348,413.73l-6.25,3.62,3.38,5.84.68.25,1.56-.77.83,1.45-8.29,4.8-.84-1.45,1.47-1,.15-.72L333.24,413l-.64-.13-1.58.78-.84-1.45,8.29-4.8.84,1.45-1.44,1-.18.6,3,5.12,6.25-3.61-3-5.12-.61-.14-1.56.76-.84-1.44,8.29-4.81.84,1.45-1.49,1-.18.6L355.79,417l.68.25,1.6-.8.84,1.45Zm23.06-16-1-1.31,1.29-1.16,0-.72-6.76-8.53.1,12.48.64.82.7.14,1.43-1,1,1.32-7.51,6-1-1.31,1.31-1.19,0-.73-9.2-11.61-.65,0-1.45,1-1-1.31,7.52-6,1,1.31L358.83,396l-.09.63,6.61,8.35-.1-12.49-.5-.63-.63-.05-1.43,1-1-1.31,7.52-6,1,1.31-1.33,1.21-.09.62,9.2,11.61.7.14,1.47-1,1,1.31Zm20.14-19-1.22-1.14,1.09-1.35-.09-.71-4.94-4.6-4.92,5.28,4.95,4.6.72,0,1.26-1.19,1.23,1.13-6.53,7-1.23-1.14,1.12-1.37-.07-.73-10.84-10.09-.66.07-1.28,1.21-1.22-1.14,6.52-7,1.22,1.14-1.09,1.35v.63l4.34,4,4.91-5.28-4.33-4-.64,0-1.26,1.19-1.22-1.14,6.52-7,1.22,1.14L386.25,370v.63l10.85,10.08.72,0,1.3-1.23,1.22,1.13Zm9.82-11.39-1.36-1,1-1.57-.18-.69L391,364.45l-.62.13L389.22,366l-1.36-1L397,352.2l4.94,3.52L400.3,358l-3.22-1.74-.58,0-2.72,3.81,12.28,8.74.76-.13,1.3-1.62,1.37,1Zm11.76-16.94-1.47-.8.79-1.67-.22-.75-13-7.13-.56.12-1.07,1.71-1.47-.81,4.51-8.19c1.57-2.86,2.89-3.87,3.54-4.27a5,5,0,0,1,5.48,0,6,6,0,0,1,3.25,4.09c.4,1.9-.29,4.19-1.43,6.26-.28.5-.6,1-.9,1.45l4.1,2.25.69-.11,1.12-1.82,1.47.81Zm13.88-28.13-1.55-.63.61-1.87-.27-.36-4.56-.21-2.31,5.7,3.41,2.95.43-.13.88-1.64,1.56.63-2.63,6.45-1.55-.64.6-1.78L410,326.88l1.57-3.84,18.84.42.88-1.54,1.55.63Zm14.17-28-4.77-.47-.55.27-3.21,12.35.35.5,4.39,1.92-.73,2.79L432,318.8l.36-1.39a29.41,29.41,0,0,0-6.31-5.76,35.94,35.94,0,0,0-6.81-3.62l-.54.34-.83,2.29-1.62-.43,4.1-15.75,1.62.42-.34,1.77.3.55L436.29,301l.42-.25.54-2.07,6.93,1.8Zm3.46-52.46c-1.61,1.84-5.35,5.28-10.78,5.28a13.21,13.21,0,0,1-10.52-5.6l-2.21,1.93-.23-7.37,7.05,1.4-2.18,1.9a10.56,10.56,0,0,0,6.25,4.33V236.2h-5.41V233h5.41v-2.11a5.52,5.52,0,1,1,3.23-.09V233h5.19v3.23h-5.19v16.52a12,12,0,0,0,7-4.13l-2.24-2.05,7.07-1.29-.38,7.43Z"/><path class="cls-2" d="M123.34,369.49a4,4,0,0,0-.67-3.76,3.85,3.85,0,0,0-3.27-1.48,10.93,10.93,0,0,0-6,2.59,10,10,0,0,0-3.84,5.17,3.93,3.93,0,0,0,.65,3.55,3.86,3.86,0,0,0,3.13,1.48,11.15,11.15,0,0,0,6.23-2.67A10,10,0,0,0,123.34,369.49Z"/><polygon class="cls-2" points="110.9 134.55 114.73 141.2 118.12 137.21 110.9 134.55"/><path class="cls-2" d="M409.6,342.47a5.55,5.55,0,0,0-2.83-.77,2.86,2.86,0,0,0-2.42,1.64l-.57,1,7.38,4.06.12-.2a4.65,4.65,0,0,0,.73-3A4.43,4.43,0,0,0,409.6,342.47Z"/><path class="cls-2" d="M271,72.4l.81.06.58-8-1.7-.12a3.89,3.89,0,0,0-2.8.62,4,4,0,0,0-1.46,3,3.9,3.9,0,0,0,1.1,3.29A5.39,5.39,0,0,0,271,72.4Z"/><path class="cls-2" d="M419.58,305.25a40,40,0,0,1,8.21,4.35,31.48,31.48,0,0,1,5.35,4.85l2.2-8.44-14.95-3.88Z"/><path class="cls-2" d="M435.77,223.27a2.27,2.27,0,0,0-2.28,2.27,2.28,2.28,0,1,0,4.56,0A2.27,2.27,0,0,0,435.77,223.27Z"/><polygon class="cls-2" points="419.66 332.48 421.41 328.2 414.61 327.96 419.66 332.48"/></svg>